<?xml version="1.0" encoding="utf-8"?>
<!-- Generator: Adobe Illustrator 27.9.0, SVG Export Plug-In . SVG Version: 6.00 Build 0)  -->
<svg version="1.1" id="Layer_1" xmlns="http://www.w3.org/2000/svg" xmlns:xlink="http://www.w3.org/1999/xlink" x="0px" y="0px"
	 viewBox="0 0 261.3 95.6" style="enable-background:new 0 0 261.3 95.6;" xml:space="preserve">
<path d="M50.6,6.9c40.5,0,81,0,121.5,0c3-0.1,5.9,0.6,8.4,2.3c-3.3-0.4-6.5-1-9.8-1.1c-40,0.1-80.1,0.1-120.1,0V6.9z"/>
<path d="M45.4,10.7c45.6,0,91.3,0,136.9,0c3.3-0.1,6.5,0.7,9.5,2c-3.2,2.5-7.2,0.3-10.9,0.6c-45.2,0-90.4,0-135.6,0
	C45.4,12.7,45.4,11.4,45.4,10.7z"/>
<path d="M198,19.5c8.3,10.6,9.4,24.8,8.7,37.8c-0.8,9.4-1.8,19-5.1,27.9c-1.5-3.5-0.7-7.2,0.1-10.7c-12.4-5.7-25.5-12.3-33.2-24.1
	c-5.7-8.6-5.7-21.1,0.9-29.1c5.8-0.5,11.7,0,17.6-0.2c-6.1,3.9-12.3,9.2-13,16.9c-0.7,8.4,4.3,16,9.7,21.9
	c5.2,5.7,11.6,10.1,18.1,14.1C204.3,55.7,204.3,36.8,198,19.5z"/>
<path d="M54.8,36.9c1.1-5.4,1.8-10.9,2.1-16.5c8.7,0,17.4,0,26.1,0c0,1-0.1,3.2-0.1,4.2c-4.9,0.1-9.9-0.3-14.8,0.1
	c-0.5,0.4-1.6,1.2-2.1,1.6c4.7,0.3,9.5,0.3,14.2,0.2c-0.1,1.4-0.2,2.8-0.3,4.2c-4.7,0.8-10.7-1.7-14.4,1.8c5.5,0.3,10.9,0.2,16.4,0
	c-0.1,1.1-0.4,3.3-0.5,4.4C72.5,36.9,63.6,36.9,54.8,36.9z"/>
<path d="M83,20.4c3.8,0,7.7,0,11.5,0c1.7,1.8,3.4,3.6,5.2,5.4c3.1-2.2,6-5.9,10.3-5.5c2.9-0.1,5.8,0.1,8.6,0.2
	c-4.6,3.5-9.3,6.8-14,10.1c0,2.1-0.1,4.2-0.1,6.3c-3.7,0-7.3,0-11,0c0.2-2.2,0.4-4.4,0.5-6.6C90.3,27.1,86.6,23.8,83,20.4z"/>
<path d="M117.8,36.9c0.8-5.5,1.4-11,1.7-16.5c3.6,0,7.2,0,10.8,0.1c-0.3,2.6-0.6,5.1-0.9,7.7c3.8-2.6,7.6-5.1,11.3-7.8
	c4.1,0,8.3,0,12.4,0.1c-4,2.7-8.1,5.3-12.2,7.9c4,2.8,7.9,5.6,11.9,8.4c-4.4,0.1-8.8,0.1-13.2,0.1c-3.3-2.8-6.8-5.6-10.2-8.3
	c-0.2,2.8-0.5,5.5-0.7,8.3C125,36.9,121.4,36.9,117.8,36.9z"/>
<path d="M203.5,20.5c8.8,15.2,14.4,33.1,11.6,50.7c-1.2,6.3-3,12.7-7.1,17.7c0.1-3.8,1-7.6,1.9-11.3
	C213.8,58.5,210.8,38.5,203.5,20.5z"/>
<path d="M211,23.4c3.5,0.6,9-0.9,10.6,3.4c1.4,6.4,0.7,13.1-0.1,19.6c-2.7-4.6-2.1-10.2-4.4-14.9C215.9,28.2,213.4,25.8,211,23.4z"
	/>
<path d="M45.4,44.3c36.6,0,73.2,0,109.8,0v1.3c-36.6,0-73.2,0-109.8,0C45.4,45.6,45.4,44.3,45.4,44.3z"/>
<path d="M50.6,54.6c32.3,0,64.6,0,96.9,0c6-0.1,12.6,1.9,16.5,6.8c3.3,4.6,1,10.8-2.5,14.6c-0.1-4.5,3.8-9,1.1-13.3
	c-3.4-4.7-9.6-6.3-15.1-6.2c-32.3,0.1-64.6,0-96.9,0C50.6,56.1,50.6,55.1,50.6,54.6z"/>
<path d="M50.6,61.1c31.4,0,62.8,0.1,94.3-0.1c4.6-0.3,10.4,0.7,12.5,5.5c1.6,6.1-1.3,14-7.7,15.9c-7.3,1.9-14.5-1.4-21.1-4.3
	c0.3-0.6,0.9-1.7,1.2-2.3c5.9,2.5,12.3,5.6,18.9,4.2c5.2-1.3,7.3-7.6,6.4-12.3c-1.3-3.5-5.5-4.2-8.7-4c-31.9,0.1-63.7,0-95.6,0
	C50.6,63,50.6,61.7,50.6,61.1z"/>
</svg>
